<?xml version="1.0" encoding="UTF-8"?>
<svg version="1.1" viewBox="0 0 1440 1440" width="360" height="360" xmlns="http://www.w3.org/2000/svg">
<path transform="translate(0)" d="m0 0h1440v1440h-1440z" fill="#211F20"/>
<path transform="translate(565,608)" d="m0 0h4v62l-2 2-15 5-38 15-65 26-33 13-32 13-7 3-3 6 1 4 9 5 28 11 110 44 46 18 1 2v61l-5-1-35-17-28-13-48-23-34-16-40-19-29-14-24-11-1-1v-60l4-3 24-11 29-14 49-23 25-12 26-12 16-8 34-16 26-12z" fill="#211F20"/>
<path transform="translate(844,608)" d="m0 0 5 1 16 7 16 8 31 15 28 13 48 23 25 12 20 9 16 8 39 18v60l-3 3-34 16-29 14-48 23-34 16-25 12-40 19-28 13h-2l-1-60 3-3 26-10 65-26 21-8 65-26 13-5 3-1v-11l-10-5-28-11-80-32-31-12-45-18-2-3z" fill="#211F20"/>
<path transform="translate(833,586)" d="m0 0 9 2 27 13 28 13 31 15 28 13 52 25 24 11 14 7 28 13 28 14 2 3v76l-5 5-22 10-32 15-16 8-54 26-24 11-29 14-28 13-35 17-20 9h-6l-4-4v-86l2-4 90-36 48-19 38-15 4-1 1-2-11-3-19-8-28-11-31-12-75-30-16-6-3-4v-87l2-4zm11 22v59l4 4 89 35 90 36 12 5 1 1v11l-6 2-70 28-26 10-65 26-28 11-1 2 1 60 6-2 68-32 31-15 28-13 41-20 28-13 25-12 15-7 1-2v-60l-20-9-31-15-20-9-16-8-25-12-26-12-16-8-34-16-29-14-24-11z" fill="#00B3EF"/>
<path transform="translate(575,587)" d="m0 0 7 1 3 7v72l-1 13-4 3-29 11-145 58h-2v2l10 3 43 17 26 10 11 5 31 12 22 9 34 14 3 2v89l-4 4-7-1-20-9-15-7-17-8-16-8-36-17-35-17-28-13-20-9-16-8-57-27-4-4v-76l5-4 16-8 27-13 28-13 14-7 23-11 34-16 25-12 30-14 31-15 26-12zm-10 21-16 8-29 14-28 13-16 8-39 18-35 17-28 13-31 15-16 7-2 2v60l16 8 23 11 27 13 56 26 16 8 26 12 16 8 34 16 27 13h3v-61l-3-3-24-9-27-11-58-23-35-14-38-15-9-5-1-4 3-6 29-12 38-15 70-28 38-15 15-5 2-2v-62z" fill="#00F0A3"/>
<path transform="translate(735,549)" d="m0 0h9l10 5 4 5 1 9-7 37-8 47-15 87-12 70-12 68-10 56-4 16-4 5-7 3h-9l-8-3-5-4-3-5-1-4v-8l28-156 8-46 27-153 3-16 4-6 6-5z" fill="#211F20"/>
<path transform="translate(735,533)" d="m0 0h9l12 3 8 6 7 8 4 10-1 12-14 80-28 162-12 68-10 54-5 19-8 11-9 5-4 1h-18l-10-4-9-7-6-9-2-8v-13l2-15 6-32 10-58 14-77 14-81 11-61 8-45 5-13 8-9 10-5zm0 16-8 4-6 7-3 12-9 52-12 68-14 78-6 36-10 54-11 62-2 11v8l3 7 4 5 6 3 4 1h9l8-4 4-7 5-25 8-44 13-74 11-64 13-76 6-35 7-39 4-21-1-9-5-6-9-4z" fill="#00DCD3"/>
<path transform="translate(832,668)" d="m0 0 5 2h6l2 1h6l40 16 46 18 90 36 12 5 2 2v9l-4 4-28 11-45 18-26 10-65 26-26 10h-2v62l40-19 17-8h3v4l6 1 5-1 5 1 1 4-28 13-35 17-20 9h-6l-4-4v-86l2-4 90-36 48-19 38-15 4-1 1-2-11-3-19-8-28-11-31-12-75-30-16-6-3-4 1-7z" fill="#00C0F2"/>
<path transform="translate(750,652)" d="m0 0 2 4-1 4 1 2h-2v3h3v2l3 1v8l-12 68-12 70-12 68-10 54-5 19-8 11-9 5-4 1h-18l-10-4-9-7-6-9-2-8v-13l2-15 6-32 9-52 2-3 1 7h3l1 5v8l-2 22-1 6v9h2v9l-7 38v8l3 7 5 5 8 3h9l8-4 3-6 5-25 8-44 13-74 11-64 12-70 5-3 2-11z" fill="#00DCD4"/>
<path transform="translate(575,587)" d="m0 0 7 1 3 7v72l-1 13-4 3-29 11-85 34-9 3 3-4h4v-3l5-2 15-9 2-3-8-1-2-1v-2l71-28 16-6 5-2 1-62-10 4-16 8-38 18-22 10-16 8-26 12-1-2 4-2h3l1-4 10-6 3-1v-4l-3 1h-9l-1-3 35-17 28-13 31-15 26-12z" fill="#04DFBF"/>
<path transform="translate(833,586)" d="m0 0 9 2 27 13 28 13 31 15 28 13 29 14-1 3 7 2 14 7 23 11 16 8 17 8 6 4v2l2 1-1 3 3 1v1l-16 1-21-10-15-7-12-6-23-11-50-24-34-16-29-14-27-12 1 12v47l3 4-4 1-3-1-6-1-3-1-2 5h-1v-83l2-4z" fill="#00C0F2"/>
<path transform="translate(735,533)" d="m0 0h9l12 3 8 6 7 8 4 10-1 12-14 80-3 18-4-3v-2h-3l1-4v-3l-1-5h-2l-2 13-2 2h-3l1-9 7-43 8-43 1-11-4-7-10-5h-9l-8 4-5 6-3 12-9 52-1 5-2-1-1 7-3-1v-13l3-5v-6l-1-5h-3l-2 6-3-1-1 2 1-11 8-43 5-10 7-8 10-5z" fill="#00C0F2"/>
<path transform="translate(866,811)" d="m0 0h3l-1 3 4 1 7 1 1 5v2l-25 10-10 3v62l40-19 17-8h3v4l6 1 5-1 5 1 1 4-28 13-35 17-20 9h-6l-4-4v-86l2-4z" fill="#04E0BF"/>
<path transform="translate(657,829)" d="m0 0 2 2v5h3l1 5v8l-2 22-1 6v9h2v9l-7 38v8l3 7 5 5 8 3h9l8-4 3-6 5-25 7-38 3 1 3 5v8l-1 7v14l-1 18-2 9-1 9-2 2-2 6-5 5-7 4-4 1h-18l-10-4-9-7-6-9-2-8v-13l2-15 6-32 9-52z" fill="#00F0A3"/>
<path transform="translate(574,600)" d="m0 0 1 2h2l1 4v3l1 16 1 21 3 11h1v23l-4 3-29 11-85 34-9 3 3-4h4v-3l5-2 15-9 2-3-8-1-2-1v-2l71-28 16-6 5-2 1-64 1-2h2z" fill="#00E9B9"/>
<path transform="translate(1172,718)" d="m0 0h9l11 4 8 9 3 6v16l-4 8-5 5-5 4-7 2h-12l-8-4-5-4-5-8-2-7v-9l4-10 5-6 9-5z" fill="#00B2EF"/>
<path transform="translate(728,769)" d="m0 0h3v19l-1 1-1 9h-2l1 6-3 23-1 3 1 6 1 2v11l-10 54-7 38-5 16-3 3 1-5 2-7 1-10 1-2 1-22v-15l1-2v-8l-4-6 1-13 14-78 2-4 3-1 1 1 1-8 1-1z" fill="#00E7BB"/>
<path transform="translate(1014,819)" d="m0 0 3 1-3 5h-3l3 1 9 1v3l-16 8-23 11-20 9-3 1-1 3-28 13-8 4h-2l-2-2-7-1-3 1-6-2v-5l23-11 38-18 15-7 9-3z" fill="#00CCE9"/>
<path transform="translate(873,994)" d="m0 0h58l29 1 3 2 1 5-2 6-2 2h-94l-4-3-1-5 3-7z" fill="#00EBB7"/>
<path transform="translate(967,772)" d="m0 0 1 3-4 3-5 1v2h-3v3l-3 1v2h6l1-3h9v2l-17 7-10 4-4 1v2l-55 22-4-1v-4l-7-1-5-2 2-1-1-3 28-11 55-22 9-2z" fill="#00CCE9"/>
<path transform="translate(769,567)" d="m0 0h3l1 2v8l-15 87-1 6-4-3v-2h-3l1-4v-3l-1-5h-2l-2 13-2 2h-3l1-9 7-43 7-38h4l2 6h3l2-15h2z" fill="#00CBE9"/>
<path transform="translate(505,968)" d="m0 0 9 1 9 6 4 6 1 3v10l-4 8-7 6-4 2h-11l-8-5-5-6-2-7v-7l3-7 7-7z" fill="#00F1A2"/>
<path transform="translate(673,744)" d="m0 0 3 3 1 13-2 4h-1l1 6v19l-1 4h2l1 10-2 19-12 67-1-3h-2l-1-9 3-28v-13h-3l-2-10 14-77z" fill="#00E8BA"/>
<path transform="translate(896,440)" d="m0 0h7l18 10 13 8 3 3-1 7-9 7-20 12-9 2-5-5-1-5 5-6 14-8-1-3-12-6-3-2v-2h-2l-1-5z" fill="#00B3EF"/>
<path transform="translate(1080,786)" d="m0 0 3 1h-2l-1 5-5 4-5 3-1 4 4 1v2l4-1-1 2-24 11-40 19-19 9-16 8-13 6-3-1 12-6 18-8 32-16-3-1-9-1v-2h3l1-4h-3l-27 13-3-1 37-18 28-13 25-12z" fill="#00BFF2"/>
<path transform="translate(505,620)" d="m0 0 7 1 3 3-1 6h2l-1 3-29 14-23 11-22 10-1-2 4-2h3l1-4 10-6 3-1v-4l-3 1h-9l-1-3 35-17z" fill="#00E8BA"/>
<path transform="translate(682,691)" d="m0 0h1v6h2l2 6 1 18-1 3 1 5h1v13l-11 64-2 4v-8l-1-6 1-3h-2v-29l-3 1v-2l3-1h1l1-5-1-10-3-1 1-9 7-40z" fill="#04DDC2"/>
<path transform="translate(866,811)" d="m0 0h3l-1 3 4 1 7 1 1 5v2l-25 10-10 3 1 63-3-1v-21l-2 1-1-8v-3-10l-4-10v-3l-3-1v-4l-2-1-2-4 1-7 3-3z" fill="#00DBD4"/>
<path transform="translate(737,718)" d="m0 0h2l1 10-1 18-2 9-1 5-1 10 2 1v14l-10 58h-1l-3-9v-7h2l1-18 1-9 2-11 1-1 1-19h-3v10l-2 10-5-1-1 2 1-10 6-34 2-1 1 4 3-9 3-19z" fill="#04DEC2"/>
<path transform="translate(950,973)" d="m0 0h18l19 1 4 3v8l-4 4h-46l-5-2-1-8 3-5z" fill="#00DCD2"/>
<path transform="translate(902,871)" d="m0 0h3v4l6 1 5-1 5 1 1 4-28 13-17 8-4-1 1-4 1-3-9 1-2-2v-3z" fill="#00DCD3"/>
<path transform="translate(276,708)" d="m0 0h6l2 7v7l-8 3-5 1 1 4 3 9-4 3-3 1h-8l-4-9-1-3-10 3-5 1-1-7-3-4 2-4 10-4 4 2 2 5 4 6 2-1h9l-1-7v-9z" fill="#00EBA9"/>
<path transform="translate(864,995)" d="m0 0 7 1-5 10 3 2v-2l7-2 6 1 1-1 13 1 5 3h27l-5-1 4-2 3-1h19l7-2-1-2-33-1-5-1 1-2 17-1h25l3 2 1 5-2 6-2 2h-94l-4-3-1-5z" fill="#04E0C0"/>
<path transform="translate(1094,723)" d="m0 0 4 1 3 8v16l-2 11v8l1 6v5l1 2-2 1 3 6 1 6-4 3-3-1-1-2 1-11-1-3-3-1-2-5v-34l1-11z" fill="#00C0F2"/>
<path transform="translate(718,558)" d="m0 0 3 1-2 13-9 52-1 5-2-1-1 7-3-1v-13l3-5v-6-3-9l2-14 4-19 4-6z" fill="#00CBEA"/>
<path transform="translate(575,587)" d="m0 0 7 1 3 7v72h-1l-1-70-4-1-7-1-16 8-9 5-13 5-9 4h-6l-2-3 23-11 28-13z" fill="#00D5D8"/>
<path transform="translate(724,536)" d="m0 0h6l1 4-9 5h-2v2l-5 5-5 11-3 19-1 1-3 20-3 8-3-1-1 2 1-11 8-43 5-10 7-8z" fill="#00CBE9"/>
<path transform="translate(467,460)" d="m0 0h8l5 5-1 6-6 5-11 3h-8l-2-1v-2h-2l-1-7 5-5z" fill="#00DBD4"/>
<path transform="translate(507,449)" d="m0 0 7 1 4 5v5l-6 5-11 3h-9l-3-3-1-5 3-5 8-4z" fill="#00DCD4"/>
<path transform="translate(734,760)" d="m0 0 2 1-1 9 2 1v14l-10 58h-1l-3-9v-7h2l1-18 1-9 2-11 1-1v-20l3-7z" fill="#04DCC5"/>
<path transform="translate(476,429)" d="m0 0 6 2 4 8 2 8-1 7-4 5-7-1-5-8-2-9v-6l5-5z" fill="#00DAD5"/>
<path transform="translate(484,470)" d="m0 0 9 1 4 11 2 11-2 4-4 2-6-1-4-5-3-10v-11z" fill="#00DAD5"/>
<path transform="translate(1176,734)" d="m0 0 6 1 5 4v11l-5 6-6 1-8-4-2-4v-8l4-5z" fill="#211F20"/>
<path transform="translate(832,668)" d="m0 0 5 2h6l4 1v2l6 2 2 2-1 2h-2l-1 7h-9l-10-4-3-4 1-7z" fill="#00CCE9"/>
<path transform="translate(864,995)" d="m0 0 7 1-5 10 3 2v-2l7-2 6 1 1-1 13 1 5 3 59 1v1h-94l-4-3-1-5z" fill="#02D2D5"/>
<path transform="translate(873,994)" d="m0 0h58v1h-16v3h-3l-1 3-30-1-8-3z" fill="#03D5C9"/>
<path transform="translate(276,708)" d="m0 0h6l2 7v7l-8 3-5 1v2h-2l-1-7v-9z" fill="#00EAAA"/>
<path transform="translate(259,698)" d="m0 0 4 1 3 10v3l-11 4-4-1-3-8 1-5 3-2z" fill="#00EBA9"/>
<path transform="translate(759,628)" d="m0 0h1l1 18-4 24-4-3v-2h-3v-3h2v-2h2l-2-11 2-6v-10z" fill="#00CBEA"/>
<path transform="translate(260,728)" d="m0 0h10l3 5 2 6-4 3-3 1h-8l-4-9v-3h2v-2z" fill="#00EFA4"/>
<path transform="translate(984,657)" d="m0 0 6 1 22 11 20 9 28 14-3 1-5-1-15-8-18-8-16-8-19-9z" fill="#00B5F0"/>
<path transform="translate(973,976)" d="m0 0h7l3 3-1 5v3 1h-17l-3-6h2l-1-3 6-2z" fill="#05E1BE"/>
<path transform="translate(759,540)" d="m0 0 4 1 7 7 2 4-1 9h-5l-5-10-7-5 2-5z" fill="#00CCE9"/>
<path transform="translate(911,621)" d="m0 0 20 9 31 15 21 10v2l-7-2-30-14-14-7-19-9-4-3z" fill="#00B6F0"/>
<path transform="translate(985,974)" d="m0 0 5 2 1 1v8l-4 4h-46v-1l40-1v-3l1-5-3-2 1-2z" fill="#00D1DD"/>
<path transform="translate(935,995)" d="m0 0h25l3 2-1 2-7 1-33-1-5-1 1-2z" fill="#00DDD2"/>
<path transform="translate(757,614)" d="m0 0h1l1 8v7l-4 5v12l-3 3-1-2v-11l3-17z" fill="#00C1F3"/>
<path transform="translate(1011,684)" d="m0 0 12 2 1 3 6 2 3 3 7 3v2l-6-1-15-7-8-4z" fill="#00B5EF"/>
<path transform="translate(580,675)" d="m0 0 4 1-1 5-9 4-9 3 1-5 11-6z" fill="#03DAC6"/>
<path transform="translate(673,744)" d="m0 0 3 3 1 13-2 4-2-1h-4l1-9z" fill="#00E5BD"/>
<path transform="translate(504,984)" d="m0 0h7l1 2v7l-2 2h-5l-3-6z" fill="#211F20"/>
<path transform="translate(561,605)" d="m0 0h7l2 2-1 3v-2l-10 4-10 5-2-1 1-3h4l1-4 6-3z" fill="#00D7D7"/>
<path transform="translate(707,616)" d="m0 0 3 1v7l-1 5-2-1-1 7-3-1v-13z" fill="#00CEE5"/>
<path transform="translate(915,995)" d="m0 0h20v1l-17 1-1 1 34 1v1l-35 1-4-3h3z" fill="#05E1BE"/>
<path transform="translate(512,450)" d="m0 0 4 2 2 3v5l-4 3-3-3-2-9z" fill="#00C8EB"/>
<path transform="translate(1009,746)" d="m0 0 9 1 1 4-1 2-11-2-3-1-1-3z" fill="#00B2EF"/>
<path transform="translate(1153,755)" d="m0 0h2v2l4-2 5 6v4l-7-1-4-6z" fill="#00C0F2"/>
<path transform="translate(864,995)" d="m0 0 7 1-5 10-3 2-2-6z" fill="#03D8CA"/>
<path transform="translate(1164,751)" d="m0 0 2 1v2l3-1 7 3v2l4 1-4 2-5-1v-3l-2-1-3 3-4-2 1-5z" fill="#00C0F2"/>
<path transform="translate(759,559)" d="m0 0h5l1 6-1 6h-2l-2 5-2 1 1-16z" fill="#00CEE9"/>
<path transform="translate(841,859)" d="m0 0 3 1v16l-3 2-1-8v-3z" fill="#00E0CE"/>
<path transform="translate(661,813)" d="m0 0h1l1 13-5 2 1-13z" fill="#00ECA8"/>
<path transform="translate(756,658)" d="m0 0h2l-1 12-4-3v-2h-3v-3h2v-2z" fill="#00CCE6"/>
<path transform="translate(1041,698)" d="m0 0 9 3v2l5 1 2 1-1 3-15-7z" fill="#00B5EF"/>
<path transform="translate(948,786)" d="m0 0 4 2-4 2-9 4h-5l3-1v-3l4-1z" fill="#00C1F3"/>
<path transform="translate(942,975)" d="m0 0h8l1 5-1 1h-5l-3-5z" fill="#04E0BE"/>
<path transform="translate(733,750)" d="m0 0h1v10l-2 5-1 3h-2l2-14z" fill="#00ECB7"/>
<path transform="translate(767,600)" d="m0 0h1l-1 12-1 6-2-2v-9z" fill="#00BEF2"/>
<path transform="translate(490,456)" d="m0 0 1 2 1 4 2 5 2 1-6-1-2-4 1-6z" fill="#00BDF2"/>
<path transform="translate(904 1e3)" d="m0 0 5 1 1 2 3 2h-11v-3h2z" fill="#04E1C0"/>
<path transform="translate(1e3 667)" d="m0 0 5 1 8 4v1l-7-1-6-3z" fill="#00B7F0"/>
<path transform="translate(658,901)" d="m0 0h2l-1 10-1 6h-1v-14z" fill="#00D8C8"/>
<path transform="translate(760,628)" d="m0 0h3l-1 12-2-2z" fill="#00BFF2"/>
<path transform="translate(751,649)" d="m0 0 2 2 1 9-3 1v-3l-1-8z" fill="#00C1F3"/>
<path transform="translate(770,583)" d="m0 0h1l-1 12-1 5h-1v-12z" fill="#00BDF2"/>
</svg>
